<svg width="56" height="56" viewBox="0 0 56 56" fill="none" xmlns="http://www.w3.org/2000/svg">
<rect width="48" height="48" rx="24" transform="matrix(1 0 0 -1 4 52)" fill="white"/>
<path d="M32.4443 24.5589C32.3112 24.0963 32.1243 23.6876 31.8835 23.3327C31.6427 22.9715 31.348 22.6673 30.9994 22.4202C30.6572 22.1667 30.2643 21.9734 29.8207 21.8403C29.3835 21.7072 28.8987 21.6407 28.3664 21.6407C27.3714 21.6407 26.4969 21.8878 25.7428 22.3821C24.995 22.8764 24.412 23.5957 23.9937 24.5399C23.5755 25.4778 23.3664 26.6248 23.3664 27.981C23.3664 29.3371 23.5723 30.4905 23.9842 31.4411C24.3961 32.3916 24.9792 33.1172 25.7333 33.6179C26.4874 34.1122 27.3778 34.3593 28.4044 34.3593C29.3359 34.3593 30.1313 34.1945 30.7903 33.865C31.4557 33.5292 31.9627 33.057 32.3112 32.4487C32.6661 31.8403 32.8435 31.121 32.8435 30.2909L33.68 30.4144H28.661V27.3156H36.8074V29.7681C36.8074 31.4791 36.4462 32.9493 35.7238 34.1787C35.0013 35.4018 34.0064 36.346 32.739 37.0114C31.4716 37.6705 30.0204 38 28.3854 38C26.5603 38 24.957 37.5976 23.5755 36.7928C22.194 35.9816 21.1167 34.8314 20.3435 33.3422C19.5768 31.8466 19.1934 30.0722 19.1934 28.019C19.1934 26.4411 19.4215 25.0342 19.8778 23.7985C20.3404 22.5564 20.9868 21.5044 21.8169 20.6426C22.6471 19.7807 23.6135 19.1248 24.7162 18.6749C25.8188 18.225 27.0134 18 28.2998 18C29.4025 18 30.4291 18.1616 31.3797 18.4848C32.3302 18.8016 33.1731 19.2516 33.9082 19.8346C34.6496 20.4176 35.2548 21.1115 35.7238 21.9163C36.1927 22.7148 36.4937 23.5957 36.6268 24.5589H32.4443Z" fill="#29ABE2"/>
<circle cx="28" cy="28" r="26.5" stroke="#2A3647" stroke-width="3"/>
</svg>
