<svg width="56" height="56" viewBox="0 0 56 56" fill="none" xmlns="http://www.w3.org/2000/svg">
<rect width="48" height="48" rx="24" transform="matrix(1 0 0 -1 4 52)" fill="white"/>
<rect width="48" height="48" rx="24" transform="matrix(1 0 0 -1 4 52)" fill="#0C2E62" fill-opacity="0.12"/>
<path d="M21.9896 25.0543C21.9355 24.5087 21.7033 24.0848 21.2929 23.7826C20.8826 23.4805 20.3257 23.3295 19.6222 23.3295C19.1442 23.3295 18.7406 23.3971 18.4114 23.5324C18.0823 23.6631 17.8297 23.8458 17.6539 24.0803C17.4825 24.3148 17.3968 24.5808 17.3968 24.8784C17.3878 25.1264 17.4397 25.3429 17.5524 25.5278C17.6696 25.7127 17.8297 25.8727 18.0326 26.008C18.2356 26.1388 18.4701 26.2538 18.7361 26.353C19.0022 26.4477 19.2863 26.5289 19.5884 26.5965L20.833 26.8941C21.4372 27.0294 21.9919 27.2098 22.4969 27.4352C23.002 27.6607 23.4394 27.938 23.8092 28.2672C24.1789 28.5964 24.4653 28.9842 24.6682 29.4306C24.8756 29.8771 24.9816 30.3889 24.9861 30.9661C24.9816 31.8139 24.7652 32.5489 24.3368 33.1712C23.9129 33.789 23.2996 34.2692 22.4969 34.6119C21.6988 34.9501 20.736 35.1192 19.6087 35.1192C18.4904 35.1192 17.5163 34.9479 16.6866 34.6052C15.8614 34.2624 15.2165 33.7551 14.7521 33.0832C14.2921 32.4068 14.0509 31.5703 14.0283 30.5738H16.8625C16.894 31.0382 17.0271 31.426 17.2615 31.7372C17.5005 32.0438 17.8185 32.2761 18.2153 32.4339C18.6166 32.5872 19.0698 32.6639 19.5749 32.6639C20.0709 32.6639 20.5015 32.5917 20.8668 32.4474C21.2366 32.3031 21.5229 32.1025 21.7258 31.8454C21.9288 31.5884 22.0302 31.293 22.0302 30.9593C22.0302 30.6482 21.9378 30.3866 21.7529 30.1747C21.5725 29.9627 21.3065 29.7824 20.9547 29.6336C20.6075 29.4848 20.1814 29.3495 19.6763 29.2277L18.1679 28.8489C17 28.5648 16.0778 28.1207 15.4014 27.5164C14.725 26.9122 14.3891 26.0982 14.3936 25.0746C14.3891 24.2358 14.6123 23.5031 15.0632 22.8763C15.5187 22.2495 16.1432 21.7602 16.9369 21.4085C17.7305 21.0567 18.6324 20.8809 19.6425 20.8809C20.6706 20.8809 21.568 21.0567 22.3346 21.4085C23.1057 21.7602 23.7054 22.2495 24.1338 22.8763C24.5622 23.5031 24.7832 24.2291 24.7967 25.0543H21.9896Z" fill="#29ABE2"/>
<path d="M26.9561 21.0703H30.5682L34.3831 30.3776H34.5454L38.3604 21.0703H41.9724V34.9231H39.1315V25.9066H39.0165L35.4315 34.8554H33.497L29.912 25.8727H29.7971V34.9231H26.9561V21.0703Z" fill="#29ABE2"/>
<circle cx="28" cy="28" r="26.5" stroke="#2A3647" stroke-width="3"/>
</svg>
